<?xml version="1.0" encoding="UTF-8"?>
<svg id="Layer_2" data-name="Layer 2" xmlns="http://www.w3.org/2000/svg" viewBox="0 0 181.18 76.91">
  <g id="Layer_1-2" data-name="Layer 1">
    <g>
      <path d="M42.72,43.41c-.2.02-.09-1.92-1.3-4.62-.62-1.33-1.62-2.79-3.08-4.05-1.44-1.27-3.39-2.26-5.56-2.67-2.18-.38-4.35-.18-6.15.5-1.82.65-3.27,1.67-4.32,2.7-2.12,2.07-2.7,3.93-2.88,3.84-.05-.02.03-.49.37-1.28.34-.79.95-1.9,2.01-3.05,1.04-1.15,2.56-2.31,4.5-3.06,1.93-.78,4.28-1.03,6.65-.62,2.36.44,4.47,1.55,5.99,2.96,1.54,1.4,2.55,3.02,3.12,4.46.57,1.45.72,2.71.78,3.57,0,.86-.05,1.33-.12,1.33"/>
      <path d="M60.66,32.68c-.1.01-.04-.75-.65-1.84-.32-.53-.83-1.11-1.59-1.52-.38-.2-.82-.35-1.3-.41-.46-.06-1.02-.02-1.6-.02-2.32.03-5.08.07-8.14.11-.78,0-1.51.03-2.39,0-.89-.07-1.78-.42-2.5-1.01-.72-.56-1.28-1.47-1.54-2.28-.28-.7-.8-1.32-1.46-1.74-.68-.42-1.41-.59-2.24-.55-.86,0-1.71,0-2.54,0-1.67-.01-3.28-.02-4.81-.03-1.53-.02-2.99-.03-4.35-.05-.34,0-.68,0-1-.01-.3,0-.59.03-.87.09-.56.13-1.07.37-1.49.7-.42.33-.76.72-.99,1.14-.23.4-.37.9-.63,1.33-.51.84-1.21,1.37-1.82,1.66-.62.29-1.15.36-1.49.38-.35.01-.53-.04-.53-.06-.01-.1.75-.04,1.84-.65.53-.31,1.11-.83,1.52-1.59.21-.37.3-.84.56-1.36.25-.5.63-.98,1.11-1.38.48-.4,1.08-.72,1.75-.89.34-.08.69-.13,1.05-.14.33,0,.66-.01,1-.01,1.36-.01,2.82-.03,4.35-.05,1.53,0,3.14-.02,4.81-.03.83,0,1.68,0,2.54,0,.89-.05,1.94.16,2.76.7.84.52,1.49,1.32,1.85,2.21.27.82.65,1.41,1.23,1.9.57.47,1.27.75,1.97.82.72.04,1.56.02,2.31.03,3.06.04,5.82.08,8.14.11.58.02,1.13,0,1.7.09.55.1,1.05.3,1.47.55.85.51,1.37,1.21,1.66,1.82.29.62.37,1.14.37,1.49,0,.35-.03.53-.06.53"/>
      <path d="M11.61,28.55c0,.14-1.86.26-4.85.35-.74.03-1.6.03-2.42.08-.79.08-1.61.42-2.24,1.04-.63.61-1.06,1.5-1.11,2.45,0,1.07,0,2.18,0,3.31,0,4.57-.06,8.72-.15,11.71-.09,3-.21,4.85-.35,4.85s-.26-1.85-.35-4.85c-.09-3-.15-7.14-.15-11.71,0-1.16,0-2.23.02-3.37.07-1.21.64-2.31,1.45-3.06.8-.76,1.84-1.15,2.8-1.2.94-.02,1.72.03,2.48.04,3,.09,4.85.21,4.85.35"/>
      <path d="M17.59,52.44s-.06.3-.28.81c-.22.52-.6,1.26-1.15,2.17-1.11,1.82-2.89,4.37-5.66,7.02-.34.34-.71.66-1.09.99-.19.16-.39.32-.59.48-.12.09-.15.14-.35.26l-.39.19c-.14.06-.31.09-.46.14-.18,0-.38.04-.58-.06-.23-.08-.37-.23-.49-.4-.1-.16-.16-.33-.2-.48-.15-.62-.12-1.19-.09-1.76.07-1.14.23-2.28.38-3.46.14-1.17.31-2.39.52-3.63.19-1.24.4-2.51.6-3.81.23-1.3.51-2.61.76-3.95.49-2.69,1.2-5.43,1.87-8.25,2.91-11.23,6.74-21.05,10.01-27.91,1.62-3.43,3.07-6.15,4.12-7.99.53-.92.95-1.63,1.25-2.1.3-.47.44-.72.48-.71.08.03-.43,1.11-1.39,2.99-.95,1.89-2.29,4.65-3.82,8.1-3.09,6.9-6.8,16.69-9.69,27.86-.67,2.8-1.38,5.53-1.88,8.2-.26,1.33-.55,2.64-.78,3.92-.21,1.29-.42,2.55-.63,3.78-.22,1.23-.4,2.43-.56,3.61-.17,1.17-.34,2.31-.42,3.4-.04.53-.06,1.08.04,1.51.06.2.13.36.21.35.03.03.12,0,.19.02.1-.03.19-.04.29-.08l.3-.14s.18-.13.26-.2c.2-.15.39-.31.58-.46.38-.31.74-.62,1.09-.94,2.77-2.53,4.62-4.99,5.81-6.72,1.19-1.74,1.68-2.81,1.75-2.77"/>
      <path d="M18.78,49.64s.16-.61.76-1.57c.16-.24.34-.49.61-.75.08-.06.16-.13.26-.19.12-.04.24-.12.38-.1.26-.02.54.22.64.46.38.87.34,1.76.35,2.78-.05,2.01-.32,4.36-.78,6.95l-.09.49-.05.25v.04s0,0,0,0c0,0-.15-.01-.17-.02-.08-.02-.2,0-.25-.01-.06.01,0,.03-.08-.06-.05-.06-.11-.09-.23-.19l-.05-.04v-.02c.15-.23.3-.56.45-.86.29-.62.59-1.24.9-1.88.61-1.29,1.24-2.62,1.89-3.98.73-1.37,1.57-2.68,2.9-3.58.33-.22.72-.4,1.18-.45.45-.07.99.1,1.33.42.67.65.78,1.42.91,2.1.17,1.38.04,2.65-.11,3.81-.2,1.12-.13,2.13.29,2.92.4.79,1.16,1.25,1.83,1.4.66.09,1.31-.2,1.77-.43.95-.5,1.39-.94,1.45-.88.04.03-.31.57-1.26,1.21-.48.29-1.11.69-2.04.64-.86-.12-1.81-.64-2.36-1.6-.57-.94-.67-2.21-.49-3.37.12-1.13.2-2.36.02-3.58-.1-.58-.28-1.22-.63-1.52-.31-.3-.82-.21-1.35.14-1.04.71-1.88,1.94-2.54,3.22-.17.32-.32.65-.46.98-.16.39-.33.68-.49,1.02-.32.66-.64,1.31-.95,1.95-.31.64-.62,1.27-.92,1.88-.16.31-.29.6-.5.94l-.06.09s-.05.06-.09.09l-.03.03c-.07.05-.2.1-.33.08-.25-.04-.31-.15-.4-.31-.03-.09-.03-.14-.03-.13v-.1s.01-.06.01-.06l.02-.08.05-.24.1-.48c.5-2.54.85-4.86.98-6.8.05-.95.08-1.9-.13-2.49-.15-.54-.78.19-1.09.55-.67.85-1,1.38-1.07,1.34"/>
      <path d="M60.66,45.68c.27,0,.5,4.07.5,9.1-.01,1.28,0,2.41-.06,3.59-.15,1.22-.83,2.18-1.55,2.71-.72.55-1.45.73-1.93.75-.49.03-.75-.06-.75-.12-.03-.18,1.1-.12,2.22-1.17.54-.51,1.02-1.31,1.09-2.27,0-1.07-.01-2.25-.02-3.49,0-5.02.22-9.1.5-9.1"/>
      <path d="M52.26,57.08s-.25.24-.79.56c-.55.28-1.39.74-2.63.74-.6-.02-1.37-.23-1.87-.84-.51-.57-.81-1.34-.97-2.14-.17-.81-.18-1.66-.14-2.55.02-.44.07-.9.14-1.35l.06-.34.03-.17v-.03s.14,0,.19,0c.12-.02.12-.06.1-.02-.03.04-.03.17-.01.26,0,.03-.04.03-.03.04-1.44,1.73-3.03,3.61-4.97,5.37-.53.47-1.08.92-1.7,1.3-.32.18-.65.36-1.07.45-.21.04-.44.07-.7.01-.25-.05-.52-.21-.67-.4-.33-.39-.39-.79-.45-1.15-.05-.36-.05-.7-.04-1.03.03-.66.09-1.27.23-1.92.63-2.51,2.31-4.25,3.87-5.26,1.59-1.03,3.11-1.36,4.13-1.47,1.03-.11,1.6-.01,1.6.03,0,.09-.56.12-1.53.35-.96.22-2.37.65-3.8,1.67-1.41,1-2.88,2.68-3.38,4.88-.11.53-.16,1.14-.18,1.74-.01.56.04,1.26.28,1.51.08.1.19.12.43.07.23-.05.5-.19.77-.34.53-.33,1.04-.75,1.55-1.19,1.86-1.69,3.45-3.54,4.93-5.23.16-.18.34-.27.56-.32.11-.02.26-.04.45.05.2.08.34.33.35.47.02.14,0,.26-.01.33l-.03.16-.06.32c-.07.43-.14.86-.17,1.27-.07.83-.08,1.63.04,2.35.12.72.34,1.37.71,1.83.36.48.9.66,1.4.72,1.04.08,1.9-.26,2.46-.45.56-.22.89-.33.91-.28"/>
      <path d="M129.89,56.7s-.28.53-1.1,1.2c-.42.32-.98.72-1.78.86-.4.07-.86.06-1.31-.12-.45-.17-.85-.46-1.2-.83-.69-.73-1.17-1.69-1.56-2.74-.19-.53-.35-1.08-.5-1.65-.07-.29-.14-.58-.19-.88-.05-.26-.09-.52-.14-.79,0-.04,0-.06-.04-.05l-.32.41c-.22.29-.69.86-1.1,1.38-.86,1.03-1.77,2.08-2.83,3.07-.53.49-1.08.96-1.71,1.35-.31.2-.65.37-1.04.49-.37.12-.88.18-1.35-.07-.46-.25-.69-.69-.81-1.05-.12-.38-.16-.74-.17-1.09-.02-.71.09-1.36.25-1.99.68-2.5,2.23-4.35,3.77-5.46,1.55-1.14,3.1-1.55,4.13-1.69.52-.08.93-.07,1.21-.06.28.01.42.03.42.07,0,.09-.57.12-1.56.37-.97.25-2.39.73-3.77,1.87-1.38,1.1-2.75,2.88-3.31,5.13-.13.56-.21,1.16-.19,1.73.02.56.2,1.2.48,1.31.25.17.89-.06,1.41-.4.53-.34,1.05-.77,1.55-1.24,1-.94,1.91-1.96,2.76-2.96.43-.51.79-.96,1.37-1.63l.39-.45.19-.22c.1-.06.2-.1.31-.11.21-.04.48.07.59.23.07.07.11.18.14.31.04.12.07.25.08.39l.07.57.07.43c.05.29.1.57.16.84.12.55.26,1.08.42,1.58.33,1,.75,1.89,1.3,2.54.54.65,1.26.95,1.91.87.66-.06,1.21-.37,1.63-.63.85-.54,1.27-.95,1.33-.89"/>
      <path d="M71.33,75.69s-.14.18-.46.48c-.17.14-.38.32-.67.47-.29.14-.67.32-1.13.24-.46-.07-.89-.4-1.21-.84-.32-.44-.56-.98-.76-1.57-.4-1.2-.65-2.62-.81-4.24-.42-6.45-.07-15.89,2.52-27.17,1.29-5.63,3.11-11.72,5.68-18.02,1.32-3.14,2.82-6.33,4.64-9.48,1.83-3.13,3.91-6.3,6.77-8.96.37-.32.76-.62,1.15-.93.4-.3.85-.54,1.28-.81l.72-.3.36-.15c.14-.04.3-.06.45-.09.65-.07,1.3.29,1.67.72.75.88,1.02,1.9,1.27,2.88.24.99.38,1.99.5,2.99.42,4.02.38,8.11.27,12.26-.25,8.31-.96,16.87-1.63,25.64-.16,2.19-.31,4.37-.46,6.53-.1,2.15-.31,4.33-.05,6.36.07.51.16,1.02.34,1.42.08.2.21.33.22.31-.02.02.12,0,.28-.14.66-.56,1.21-1.53,1.7-2.42.98-1.83,1.8-3.75,2.59-5.65,3.1-7.66,5.63-15.26,8.11-22.46,1.24-3.6,2.45-7.12,3.62-10.53.6-1.7,1.2-3.38,1.85-5.02l.5-1.22c.19-.43.28-.69.7-1.47.4-.66.75-.95,1.17-.61.14.13.22.37.25.71,0,.18.02.35,0,.55l-.02.49c-.32,3.45-1,6.63-1.46,9.74-.48,3.1-.85,6.09-1.16,8.95-1.17,11.43-.93,20.85.61,27.08.39,1.55.86,2.9,1.45,3.97.57,1.07,1.36,1.86,2.17,1.95.82.03,1.32-.49,1.63-.76.28-.33.43-.49.44-.48.01,0-.11.2-.37.55-.29.29-.78.89-1.72.89-.93-.07-1.8-.92-2.41-2-.64-1.09-1.15-2.45-1.57-4.02-1.68-6.29-2.02-15.76-.94-27.25.28-2.87.63-5.88,1.1-9,.44-3.11,1.1-6.36,1.39-9.66v-.14s0-.05,0-.05c0-.04,0-.07,0-.1-.04-.08-.1.07-.12.1.01-.03-.24.52-.39.88l-.48,1.2c-.63,1.62-1.22,3.3-1.81,5-1.16,3.42-2.35,6.93-3.58,10.54-2.46,7.21-4.97,14.81-8.07,22.53-.79,1.92-1.61,3.86-2.62,5.75-.26.47-.52.94-.83,1.4-.31.46-.62.92-1.13,1.33-.24.18-.64.46-1.19.29-.51-.19-.68-.57-.81-.84-.25-.59-.34-1.14-.42-1.69-.16-1.1-.14-2.22-.11-3.3.03-1.09.09-2.17.15-3.26.13-2.17.3-4.35.46-6.55.68-8.77,1.39-17.32,1.65-25.59.11-4.13.16-8.2-.25-12.13-.11-.98-.25-1.94-.47-2.88-.22-.91-.52-1.86-1.05-2.47-.27-.3-.56-.45-.89-.42l-.27.05-.31.13-.62.25c-.39.25-.79.46-1.16.73-.36.29-.73.57-1.08.87-2.74,2.53-4.82,5.64-6.62,8.72-1.8,3.1-3.31,6.25-4.63,9.35-2.58,6.24-4.43,12.27-5.76,17.86-2.66,11.19-3.11,20.59-2.82,26.98.12,1.6.34,3.01.7,4.18.35,1.14.91,2.15,1.72,2.31.8.1,1.37-.38,1.71-.6.34-.27.51-.41.52-.4"/>
      <path d="M155.13,53.57c.04.05-.58.32-1.48-.19-.43-.24-.92-.64-1.29-1.26-.37-.62-.58-1.45-.48-2.37.06-.46.23-.96.57-1.38.34-.43.84-.72,1.35-.89.52-.19,1.07-.22,1.67-.21.6.06,1.24.28,1.73.74.94.97,1.16,2.3,1.2,3.54.02.63-.02,1.26-.11,1.91-.12.69-.39,1.36-.76,1.93-.75,1.16-1.78,2.04-2.92,2.64-1.14.59-2.51.81-3.71.42-1.22-.39-2.03-1.35-2.5-2.28-.5-.96-.58-2.04-.35-2.91.48-1.76,1.57-2.76,2.26-3.38.73-.61,1.21-.85,1.24-.8.04.06-.35.4-.97,1.07-.59.68-1.52,1.73-1.84,3.25-.15.75-.05,1.6.39,2.38.43.78,1.13,1.53,2.06,1.8,1.87.57,4.24-.78,5.51-2.72.32-.49.52-1.02.63-1.55.09-.58.12-1.17.11-1.74,0-1.13-.25-2.25-.87-2.91-.32-.31-.73-.46-1.17-.53-.45-.01-.93,0-1.34.13-.85.22-1.36.86-1.48,1.59-.12.74,0,1.46.28,2,.27.55.66.93,1.02,1.2.71.54,1.26.44,1.27.52"/>
      <path d="M146.45,58.1s-.12.16-.44.36c-.3.19-.95.42-1.66.03-.67-.4-1.15-1.2-1.55-2.13-.4-.93-.72-2.04-1.03-3.26-.32-1.22-.58-2.58-1.02-3.95-.11-.33-.24-.68-.41-.94-.04-.04-.09-.12-.12-.14-.02-.02-.07-.05-.14-.08-.12-.06-.25-.07-.37-.06-.53.05-1.1.68-1.53,1.32-.89,1.34-1.57,2.97-2.23,4.66-.32.86-.65,1.74-.98,2.63-.17.45-.33.9-.53,1.37-.07.14-.08.19-.22.43-.14.2-.34.34-.57.39-.46.12-.98-.15-1.13-.62-.4-1.36-.58-2.61-.72-3.95-.41-4.42-.39-8.61-.36-12.43.05-3.81.19-7.24.33-10.12.15-2.88.31-5.2.45-6.81.14-1.61.26-2.49.33-2.49.07,0,.08.9.06,2.51-.03,1.61-.08,3.94-.13,6.82-.05,2.88-.12,6.3-.12,10.1.01,3.8.03,7.98.43,12.32.13,1.28.33,2.58.65,3.66h0s0,0,0,0c-.02.03.07-.14.11-.22.18-.42.35-.87.52-1.31.34-.89.68-1.77,1-2.64.7-1.72,1.4-3.37,2.4-4.82.25-.36.54-.7.87-1.01.34-.3.76-.59,1.31-.64.26-.02.55.02.77.14.11.04.23.11.35.22.12.1.17.2.25.3.24.4.36.77.48,1.14.43,1.47.65,2.82.92,4.04.26,1.22.53,2.31.87,3.22.33.91.74,1.64,1.26,2.01.52.35,1.07.25,1.39.11.33-.13.5-.22.52-.19"/>
      <path d="M149.79,27.71c.08.13-1.44,1.14-3.54,3.17-2.11,2.02-4.75,5.1-7.24,8.8-2.5,3.7-4.42,7.28-5.58,9.95-.57,1.34-.95,2.46-1.1,3.24-.06.39-.09.7-.04.88.03.19.12.27.09.31,0,.02-.16-.02-.27-.24-.13-.22-.16-.57-.16-1,.03-.86.33-2.05.83-3.45,1.01-2.81,2.87-6.5,5.41-10.25,2.53-3.76,5.32-6.83,7.59-8.76,2.27-1.94,3.96-2.75,4.01-2.65"/>
      <path d="M170.31,50.22c-.1.04-.27-.5-.96-1.15-.68-.63-2-1.26-3.68-1.17-.82.05-1.76.28-2.45.86-.31.3-.58.66-.59,1.1-.06.37.19.8.54,1.2.71.81,1.72,1.52,2.73,2.29.51.39,1.03.79,1.54,1.26.25.24.51.5.73.82.21.31.46.76.34,1.33-.14.48-.43.85-.75,1.08-.32.26-.66.41-1,.55-.68.26-1.36.37-2.04.42-.68.04-1.35.01-2-.15-.63-.18-1.37-.37-1.79-1.24-.1-.23-.11-.55.05-.77.05-.13.18-.2.27-.3.09-.07.19-.11.28-.16.35-.14.65-.18.95-.21.59-.06,1.15-.04,1.68,0,1.06.08,2.04.24,2.91.42,1.76.37,3.13.86,4.04,1.3.91.44,1.33.82,1.3.87-.04.06-.52-.2-1.44-.51-.93-.31-2.29-.69-4.02-.96-.86-.14-1.82-.25-2.83-.29-.51-.02-1.03-.01-1.54.05-.25.04-.51.08-.69.17l-.09.05s0,0-.01.02c0,.01,0,.02,0,.04.1.22.61.52,1.14.62.54.12,1.13.14,1.73.1.59-.05,1.2-.16,1.75-.37.54-.2,1.05-.57,1.13-.93.1-.23-.34-.82-.78-1.21-.45-.42-.96-.82-1.46-1.21-1-.78-2.02-1.51-2.84-2.48-.39-.47-.81-1.12-.71-1.87.04-.7.48-1.26.93-1.64.96-.73,2.03-.91,2.95-.93,1.89-.01,3.32.81,3.98,1.6.32.41.53.76.6,1.02.09.26.12.39.08.4"/>
      <path d="M175.85,47.84c.14.05-.06.96-.37,2.43-.15.73-.33,1.6-.48,2.57-.13.96-.25,2.04-.1,3.08.08.51.24.98.5,1.31.26.33.62.51,1.04.59.84.14,1.72-.08,2.41-.27,1.41-.42,2.27-.82,2.34-.68.06.1-.68.72-2.1,1.34-.72.28-1.62.64-2.78.51-.57-.07-1.22-.35-1.65-.88-.43-.52-.63-1.16-.73-1.78-.18-1.25,0-2.38.18-3.38.2-1,.46-1.88.7-2.6.5-1.44.93-2.28,1.05-2.24"/>
      <path d="M178.26,44.47c.07.11-.04.35-.4.59-.18.11-.43.24-.78.23-.34,0-.77-.19-1-.51-.47-.65-.38-1.29-.26-1.68.14-.41.4-.58.51-.51.12.07.13.29.19.6.05.29.15.74.34.98.1.12.18.17.3.21.12.04.3.04.45.02.31-.02.57-.05.64.07"/>
    </g>
  </g>
</svg>