<?xml version="1.0" encoding="UTF-8"?>
<svg id="Layer_2" xmlns="http://www.w3.org/2000/svg" version="1.1" viewBox="0 0 181.2 76.9">
  <!-- Generator: Adobe Illustrator 30.0.0, SVG Export Plug-In . SVG Version: 2.1.1 Build 123)  -->
  <path d="M160.7,34.1c0-.7-.9-1.2-1.6-1.2,1.2-1.8,0-2.1-1.3-3,2-3.1-.1-2.9-2.1-4.3-.4-.3-1.4-1-1.6-1.3-.6-.9-.7-1.8-1.1-2.7-3.4-6.8-15.4-7.4-21.8-5.4-6.8,2.1-11.8,7.8-8.7,15.2.5,1.1,1.5,1.6,1.9,2.3,1,2-.3,1.2,1.9,3,1.6,1.3,1.1.6,2.6,1.3.7.3,2.5,2.1,3.5,2.7.7.3,1.3.5,2.1.6.3.4,0,1,0,1.3.1.4.6.6.7.9.2.6-.8,1.9.6,2.5,2.2,1,2.9-1.3,3.8-2.6.2-.2,0-.5.6-.3.7,2.2,1.3,4.7.3,6.8-4.5,2.5-9.3,5.3-14.4,6.5-2,.5-5.9,1.3-7.7.4-3.8-1.8-.5-8.9-2.3-11.8-.4-.7-1.5-.7-2.3-.6-3,.4-7.4,5.1-10.3,6.5-.7.3-1.2.6-2,.5.4-2.8,4.5-6.7,7-7.8,1.3-.6,5.7-.7,5.2-2.5-.6-2.3-5.4-1.7-7.2-1.2-4.1,1-7.8,5.1-11.2,7.6-3.8,2.8-9.1,6.5-13.4,8.2-6.5,2.7-5-.9-6.4-5.6-2.2-7.1-7.4-4.8-12.2-1.9-.8.4-5,3.6-5.4,3.2.8-3.3,6.5-11.4-.9-10.3-1.9.3-6.8,4.2-8.8,5.4-5,3.1-12.1,7.4-17.6,9.2-.9.3-3.8,1.4-4.3.3-.7-1.4.7-5.6,1.4-7.1.5-1.3,2.9-4.7,2.9-5.6,0-1.2-2.3-2.6-3.5-2.4-2.6.3-6.1,7.3-6.6,9.7-.6,3.5,0,9.2,4.5,9.9,6,.9,12.6-2,17.8-4.8l9.4-5.7c-.8,2.5-4.4,9.1-2,11.2,1.6,1.4,4.3.1,5.8-.8,2.4-1.5,11.7-11,13.5-10.6,1.7,3.7.1,9.3,5,10.9,6.3,2,16.2-4,21-7.8,2.4,5.5,6.9,4.1,11,1.5.6-.4,3.6-3,4-2.5-.3,5.2,1.3,9.5,7.1,10,11.2,1,26.7-8.5,34.4-16.1,1-1,3.1-2.6,1.8-4,2.2,0,6.2-1.4,6.2-4,0-.7-.6-1.7-.5-2,0-.4.8-.5.7-1.3ZM139,42.8l-1.8,1.5c.4-.7,0-2,0-2.4.2-.9,2.3,0,1.7.9Z"/>
  <path d="M30,37.8c-1.3-1.3.6-4.4,1.5-5.7,1.5-2.1,2.8-3.3,5.4-1.9s1.2,1.9.4,3.4-5.1,6.5-7.4,4.2Z"/>
</svg>